<svg width="501" height="469" viewBox="0 0 501 469" fill="none" xmlns="http://www.w3.org/2000/svg">
<path d="M211.156 98.0608C113.532 56.9187 88.8239 133.614 83.6338 181.079L0.899414 155.388C16.3194 31.2034 101.452 -41.389 256.094 26.2544C410.736 93.8978 353.427 250.478 305.442 320.313L227.009 277.953L227.205 277.605C254.591 228.936 305.791 137.943 211.156 98.0608Z" fill="#4B0AA5"/>
<path d="M227.564 174.788L152.546 133.052C94.9487 175.891 -11.213 343.061 204.796 442.767C382.619 524.848 447.507 395.006 462.652 310.135L375.3 284.311C365.268 329.696 339.614 401.707 233.167 357.412C126.72 313.117 185.078 217.206 227.564 174.788Z" fill="#4B0AA5"/>
<path d="M399.221 184.723L380.062 256.096L473.035 280.148L500.899 214.305L399.221 184.723Z" fill="#4B0AA5"/>
</svg>
