<svg xmlns="http://www.w3.org/2000/svg" width="32" height="32" fill="none" viewBox="0 0 32 32">
  <path fill="#C2C8CB" d="M8.615 1.788a.941.941 0 0 0-1.882 0v1.344H4.471a3.765 3.765 0 0 0-3.765 3.765v20.632a3.765 3.765 0 0 0 3.765 3.765h23.058a3.765 3.765 0 0 0 3.765-3.765V6.897a3.765 3.765 0 0 0-3.765-3.765h-2.264V1.788a.941.941 0 0 0-1.882 0v1.344H8.615V1.788ZM29.412 12.27V6.897a1.882 1.882 0 0 0-1.883-1.883h-2.264v1.915a.941.941 0 0 1-1.882 0V5.014H8.615v1.915a.941.941 0 0 1-1.882 0V5.014H4.47a1.882 1.882 0 0 0-1.882 1.883v5.374h26.823Zm-26.823 1.882h26.823v13.377a1.882 1.882 0 0 1-1.883 1.882H4.471a1.882 1.882 0 0 1-1.882-1.882V14.153Z"/>
</svg>
