<svg xmlns="http://www.w3.org/2000/svg" width="34" height="30" fill="none" viewBox="0 0 34 30">
  <path fill="#4B0AA5" d="M1.5.1A1.5 1.5 0 0 0 0 1.6v13.507a1.5 1.5 0 0 0 1.5 1.5h3.02v4.018c0 1.224 1.388 1.933 2.38 1.216l7.24-5.235h8.453a1.5 1.5 0 0 0 1.5-1.5V1.6a1.5 1.5 0 0 0-1.5-1.5H1.5Z"/>
  <path fill="#4B0AA5" d="M28.243 7.191a1 1 0 0 0 0 2H32V22.59h-3.257a1.5 1.5 0 0 0-1.5 1.5v3.055l-5.91-4.27a1.5 1.5 0 0 0-.878-.285h-9.706a1 1 0 1 0 0 2h9.544l6.572 4.749c.992.716 2.378.008 2.378-1.216V24.59H32.5a1.5 1.5 0 0 0 1.5-1.5V8.691a1.5 1.5 0 0 0-1.5-1.5h-4.257Z"/>
</svg>
