<svg xmlns="http://www.w3.org/2000/svg" width="32" height="33" fill="none" viewBox="0 0 32 33">
  <path fill="#C2C8CB" fill-rule="evenodd" d="M26.35 25.527A13.964 13.964 0 0 1 16 30.1c-4.1 0-7.79-1.763-10.35-4.572a11.903 11.903 0 0 1 5.3-4.947l2.347-1.107-1.668-1.988a5.704 5.704 0 1 1 8.743 0l-1.668 1.988 2.347 1.107a11.902 11.902 0 0 1 5.3 4.946Zm1.319-1.689a13.928 13.928 0 0 0-5.765-5.066 7.673 7.673 0 0 0 1.8-4.95 7.704 7.704 0 1 0-13.607 4.95 13.927 13.927 0 0 0-5.765 5.067A13.935 13.935 0 0 1 2 16.1c0-7.732 6.268-14 14-14s14 6.268 14 14c0 2.861-.858 5.522-2.331 7.738Zm1.05 1.971A15.93 15.93 0 0 0 32 16.1c0-8.837-7.163-16-16-16S0 7.263 0 16.1s7.163 16 16 16c4.375 0 8.34-1.756 11.227-4.6a16.102 16.102 0 0 0 1.491-1.69Z" clip-rule="evenodd"/>
</svg>
