<svg xmlns="http://www.w3.org/2000/svg" width="32" height="32" fill="none" viewBox="0 0 32 32">
  <path fill="#C2C8CB" fill-rule="evenodd" d="M19.875 9.736c1.477-.492 2.881.913 2.389 2.389l-2.236 6.708a1.889 1.889 0 0 1-1.194 1.195l-6.709 2.236c-1.476.492-2.88-.913-2.389-2.389l2.237-6.708a1.888 1.888 0 0 1 1.194-1.195l6.708-2.236ZM20.5 11.5l-6.75 2.25-2.25 6.75 6.75-2.25 2.25-6.75Z" clip-rule="evenodd"/>
  <path fill="#C2C8CB" fill-rule="evenodd" d="M32 16c0 8.837-7.163 16-16 16S0 24.837 0 16 7.163 0 16 0s16 7.163 16 16Zm-2 0c0 7.732-6.268 14-14 14S2 23.732 2 16 8.268 2 16 2s14 6.268 14 14Z" clip-rule="evenodd"/>
</svg>
