<svg width="32" height="32" viewBox="0 0 32 32" fill="none" xmlns="http://www.w3.org/2000/svg">
<path d="M23.9122 3.8977C21.424 2.0759 18.3531 1 15.0303 1C6.72888 1 1.44496e-08 7.71531 1.44496e-08 16C1.44496e-08 19.7941 1.41123 23.259 3.73845 25.9005L0.284018 29.348C-0.0946726 29.7259 -0.0946726 30.3386 0.284018 30.7166C0.662708 31.0945 1.27669 31.0945 1.65538 30.7166L5.1098 27.2691C7.75666 29.5916 11.2286 31 15.0303 31C23.3317 31 30.0606 24.2847 30.0606 16C30.0606 13.9363 29.6431 11.97 28.8877 10.1806C28.3741 10.7271 27.9293 11.3464 27.5674 12.0235C27.9665 13.2778 28.1818 14.6138 28.1818 16C28.1818 23.2487 22.2937 29.125 15.0303 29.125C7.76691 29.125 1.87879 23.2487 1.87879 16C1.87879 8.75125 7.76691 2.875 15.0303 2.875C17.8315 2.875 20.4282 3.74901 22.5614 5.23868C23.0586 4.84707 23.5117 4.39703 23.9122 3.8977Z" fill="#C2C8CB"/>
<path fill-rule="evenodd" clip-rule="evenodd" d="M26.8526 11.7433C26.8863 11.6511 26.9219 11.5598 26.9592 11.4697C27.5896 9.94646 28.7301 8.73494 30.1531 8.08091C30.202 8.05847 30.2511 8.03669 30.3006 8.01557L32 7.29032L30.3006 6.56507C30.2511 6.54396 30.202 6.52217 30.1531 6.49973C28.7301 5.84571 27.5896 4.63419 26.9592 3.11099C26.9219 3.02084 26.8863 2.92959 26.8526 2.83731L26.1818 1L25.511 2.8373C25.4773 2.92959 25.4418 3.02084 25.4045 3.11099C24.774 4.63419 23.6336 5.84571 22.2105 6.49973C22.1617 6.52217 22.1125 6.54395 22.063 6.56507L20.3636 7.29032L22.063 8.01557C22.1125 8.03669 22.1617 8.05847 22.2105 8.08091C23.6336 8.73494 24.774 9.94646 25.4045 11.4697C25.4418 11.5598 25.4773 11.6511 25.511 11.7433L26.1818 13.5806L26.8526 11.7433ZM26.1818 9.79478C26.7934 8.78567 27.6134 7.92661 28.5888 7.29032C27.6134 6.65404 26.7934 5.79498 26.1818 4.78586C25.5703 5.79498 24.7502 6.65404 23.7748 7.29032C24.7502 7.92661 25.5703 8.78567 26.1818 9.79478Z" fill="#C2C8CB"/>
</svg>
